HIERARCHY
ROOT hip
{
	OFFSET 0.000000 0.000000 0.000000 
	CHANNELS 6 Xposition Yposition Zposition Xrotation Zrotation Yrotation
	JOINT abdomen
	{
		OFFSET 0.000000 3.402643 0.000000 
		CHANNELS 3 Xrotation Zrotation Yrotation
		JOINT chest
		{
			OFFSET 0.000000 8.438565 -0.680529 
			CHANNELS 3 Xrotation Zrotation Yrotation
			JOINT neck
			{
				OFFSET 0.000000 10.207942 -0.272212 
				CHANNELS 3 Xrotation Zrotation Yrotation
				JOINT head
				{
					OFFSET 0.000000 3.130431 0.000000 
					CHANNELS 3 Xrotation Zrotation Yrotation
					End Site
					{
						OFFSET 0.000000 3.130435 0.000000 
					}
				}
			}
			JOINT lCollar
			{
				OFFSET 3.470700 6.669187 -0.816635 
				CHANNELS 3 Yrotation Zrotation Xrotation
				JOINT lShldr
				{
					OFFSET 3.198488 0.000000 0.000000 
					CHANNELS 3 Zrotation Yrotation Xrotation
					JOINT lForeArm
					{
						OFFSET 10.139888 0.000000 0.000000 
						CHANNELS 3 Yrotation Zrotation Xrotation
						JOINT lHand
						{
							OFFSET 8.370511 0.000000 0.000000 
							CHANNELS 3 Zrotation Yrotation Xrotation
							End Site
							{
								OFFSET 4.083176 0.000000 0.000000 
							}
						}
					}
				}
			}
			JOINT rCollar
			{
				OFFSET -3.470700 6.669187 -0.816635 
				CHANNELS 3 Yrotation Zrotation Xrotation
				JOINT rShldr
				{
					OFFSET -3.198488 0.000000 0.000000 
					CHANNELS 3 Zrotation Yrotation Xrotation
					JOINT rForeArm
					{
						OFFSET -10.139888 0.000000 0.000000 
						CHANNELS 3 Yrotation Zrotation Xrotation
						JOINT rHand
						{
							OFFSET -8.370511 0.000000 0.000000 
							CHANNELS 3 Zrotation Yrotation Xrotation
							End Site
							{
								OFFSET -4.083176 0.000000 0.000000 
							}
						}
					}
				}
			}
		}
	}
	JOINT lThigh
	{
		OFFSET 5.308129 -1.633274 1.361059 
		CHANNELS 3 Xrotation Zrotation Yrotation
		JOINT lShin
		{
			OFFSET -2.041588 -20.007561 0.000000 
			CHANNELS 3 Xrotation Zrotation Yrotation
			JOINT lFoot
			{
				OFFSET 0.000000 -19.190928 -1.224953 
				CHANNELS 3 Xrotation Yrotation Zrotation
				End Site
				{
					OFFSET 0.000000 -2.449906 4.627600 
				}
			}
		}
	}
	JOINT rThigh
	{
		OFFSET -5.308129 -1.633274 1.361059 
		CHANNELS 3 Xrotation Zrotation Yrotation
		JOINT rShin
		{
			OFFSET 2.041588 -20.007561 0.000000 
			CHANNELS 3 Xrotation Zrotation Yrotation
			JOINT rFoot
			{
				OFFSET 0.000000 -19.190928 -1.224953 
				CHANNELS 3 Xrotation Yrotation Zrotation
				End Site
				{
					OFFSET 0.000000 -2.449906 4.627600 
				}
			}
		}
	}
}
MOTION
Frames: 6
Frame Time: 0.033333
3.764664 46.124630 3.764664 -0.007952 -0.015435 -35.488281 16.056065 0.016830 0.107687 33.237587 -12.092505 19.050295 -8.336039 1.839367 12.356380 -16.795679 -4.583185 -2.561118 2.000000 -2.000000 0.000000 -85.159744 -61.870171 28.318035 -104.497978 -0.568544 9.122098 4.332163 13.614931 -14.000949 -2.000000 2.000000 0.000000 70.578964 8.793674 1.184891 119.978119 0.657948 9.258347 30.787258 -29.649630 -29.125153 -27.308907 26.555878 7.254441 42.663769 -0.624409 -3.135154 -5.862685 15.618580 -19.202654 -11.780443 -16.294542 23.455658 35.412266 0.941534 2.734997 -24.150780 -21.837454 18.603283 
5.894971 45.468559 5.894971 -0.007952 -0.015435 -35.488281 16.056065 0.016830 0.107687 33.237587 -12.092505 19.050295 -8.336039 1.839367 12.356380 -16.795679 -4.583185 -2.561118 2.000000 -2.000000 0.000000 -85.159744 -61.870171 28.318035 -104.497978 -0.568544 9.122098 4.332163 13.614931 -14.000949 -2.000000 2.000000 0.000000 70.578964 8.793674 1.184891 119.978119 0.657948 9.258347 30.787258 -29.649630 -29.125153 -27.308907 26.555878 7.254441 42.663769 -0.624410 -3.135154 -5.862684 15.618582 -19.202654 -11.780443 -16.294542 23.455660 35.412266 0.941535 2.734997 -24.150780 -21.837460 18.603279 
8.025276 44.812481 8.025276 -0.007422 -0.016113 -40.537109 15.291006 6.135446 -5.279415 34.319874 -7.958881 19.578476 -8.336039 1.839367 12.356380 -12.932830 -12.810366 2.551055 2.000000 -2.000000 0.000000 -90.863350 -55.657051 23.082169 -134.658401 -0.770919 9.355841 4.332163 13.614931 -14.000949 -2.000000 2.000000 0.000000 61.338985 5.578362 -12.553319 138.483688 0.813865 9.370267 -1.318533 -27.591898 12.901564 -41.828667 20.132668 3.636708 58.742558 0.326923 -3.811770 -11.517215 17.560678 -12.265821 -42.039883 -16.620724 1.824314 112.994598 -4.090751 3.723579 -16.295437 10.957841 -0.958754 
11.746629 44.727345 11.746629 -0.007474 -0.016051 -40.058590 15.770195 3.038170 -10.467031 33.237587 -12.092505 19.050295 -8.336039 1.839367 12.356380 -16.719667 -5.576988 4.695081 2.000000 -2.000000 0.000000 -74.961571 -56.816257 11.138344 -158.169189 -1.002189 9.449359 4.332163 13.614931 -14.000949 -2.000000 2.000000 0.000000 67.217552 11.388987 -22.368376 152.444321 0.947057 9.428185 -19.666967 -13.774770 39.796959 -46.687790 16.610600 7.557949 60.575603 0.435192 -3.854002 -10.988476 14.202812 -5.450028 -70.148949 -25.670177 -6.053288 157.471344 -6.073423 1.352615 -2.975047 -0.267954 -20.350399 
11.345943 52.630779 11.345943 -0.008451 -0.014659 -30.068357 16.642988 -10.226020 -0.462800 31.164436 -20.663288 18.206118 -8.336039 1.839367 12.356380 -26.097057 11.310241 -13.094430 2.000000 -2.000000 0.000000 -49.134628 -65.376648 12.742699 -163.032059 -1.046578 9.449560 4.332163 13.614931 -14.000949 -2.000000 2.000000 0.000000 86.897408 18.780941 -31.416849 153.075226 0.955398 9.426357 -21.581352 -11.216029 43.084694 -22.526478 16.516432 30.549643 26.194113 -1.359439 -2.234862 1.319816 -7.451883 -0.526771 -99.040672 -29.091965 29.154284 90.734009 -2.587848 4.201816 25.928364 9.295589 24.434309 
10.704857 60.804745 10.704857 -0.009318 -0.012688 -17.412111 14.585176 -21.257481 12.190682 29.499102 -28.145658 17.740185 -8.336039 1.839367 12.356380 -36.999393 22.554132 -35.853558 2.000000 -2.000000 0.000000 -21.642403 -72.634460 8.061477 -158.580063 -1.001062 9.449155 4.332163 13.614931 -14.000949 -2.000000 2.000000 0.000000 103.604080 24.571695 -36.095867 148.506149 0.906081 9.416585 -19.666967 -13.774770 39.796959 -20.050793 21.689556 50.283699 33.750248 -1.041701 -2.680261 -2.409864 -29.859064 4.190016 -112.498665 -12.315979 56.911213 12.604118 1.740620 1.333288 79.202873 -39.810539 72.186760 
